<svg width="1949" height="20" viewBox="0 0 1949 20" fill="none" xmlns="http://www.w3.org/2000/svg">
<mask id="mask0_1142_35" style="mask-type:luminance" maskUnits="userSpaceOnUse" x="0" y="0" width="1949" height="20">
<path d="M0 0H1948.56V19.8801H0V0Z" fill="white"/>
</mask>
<g mask="url(#mask0_1142_35)">
<mask id="mask1_1142_35" style="mask-type:luminance" maskUnits="userSpaceOnUse" x="0" y="0" width="1956" height="20">
<path d="M1955.44 0H0V19.8801H1955.44V0Z" fill="white"/>
</mask>
<g mask="url(#mask1_1142_35)">
<mask id="mask2_1142_35" style="mask-type:luminance" maskUnits="userSpaceOnUse" x="613" y="2" width="681" height="8">
<path d="M613.335 2.56274H1293.86V9.94012H613.335V2.56274Z" fill="white"/>
</mask>
<g mask="url(#mask2_1142_35)">
<path d="M1294.02 5.43596C1290.14 7.10558 1286.54 7.99863 1281.97 7.88215C1271.91 7.57152 1261.85 7.41621 1251.74 7.33855C1219.3 7.02792 1186.86 6.79496 1154.43 6.60081C1130.71 6.4455 1106.93 6.32902 1083.15 6.1737C1061.1 6.05722 1039.04 5.86308 1016.99 5.86308C998.431 5.86308 979.873 5.97956 961.315 6.25136C945.177 6.48433 929.04 7.02792 912.902 7.37738C904.134 7.57152 895.366 7.64917 886.598 7.84331C846.738 8.65871 806.825 8.07629 766.965 8.2316C745.502 8.30926 723.985 8.46456 702.468 8.73636C683.587 8.96934 664.706 9.39644 645.772 9.70707C638.241 9.82356 630.656 9.90122 623.125 9.94004C620.92 9.94004 618.714 9.82356 616.509 9.66824C614.465 9.4741 613.389 8.77519 613.658 7.92097C614.034 6.87261 615.433 6.75613 616.993 6.71729C626.783 6.29018 636.573 5.82425 646.363 5.43596C649.806 5.28065 653.249 5.16416 656.691 5.08651C670.677 4.81471 684.663 4.50409 698.649 4.34877C710.752 4.23229 722.855 4.34877 734.959 4.34877C740.445 4.34877 745.986 4.3876 751.527 4.50409C761.855 4.69823 772.129 4.9312 782.457 5.16416C783.102 5.203 783.802 5.24183 784.447 5.24183C801.176 5.3583 817.906 5.6301 834.581 5.59128C848.352 5.59128 862.123 5.28065 875.84 5.04768C887.459 4.81471 899.024 4.54291 910.643 4.23229C927.049 3.80517 943.51 3.33924 959.916 2.91213C966.748 2.75682 973.579 2.64033 980.411 2.67916C1001.44 2.67916 1022.53 2.67916 1043.62 2.87329C1059.32 3.02862 1075.03 3.57221 1090.74 3.76635C1105.58 3.92166 1120.49 3.88283 1135.33 3.92166C1141.14 3.9605 1147 3.99932 1152.81 3.99932C1161.58 3.99932 1170.3 3.92166 1179.01 3.92166C1208 3.9605 1237 3.99932 1265.99 4.1158C1274.01 4.1158 1282.08 4.46526 1290.09 4.69823C1291.27 4.73705 1292.46 5.12534 1294.02 5.43596Z" fill="black"/>
</g>
<mask id="mask3_1142_35" style="mask-type:luminance" maskUnits="userSpaceOnUse" x="1272" y="2" width="677" height="9">
<path d="M1272.02 2.56274H1948.56V10.0178H1272.02V2.56274Z" fill="white"/>
</mask>
<g mask="url(#mask3_1142_35)">
<mask id="mask4_1142_35" style="mask-type:luminance" maskUnits="userSpaceOnUse" x="1266" y="0" width="690" height="20">
<path d="M1955.44 0H1266.91V19.8801H1955.44V0Z" fill="white"/>
</mask>
<g mask="url(#mask4_1142_35)">
<mask id="mask5_1142_35" style="mask-type:luminance" maskUnits="userSpaceOnUse" x="1272" y="2" width="677" height="8">
<path d="M1272.02 2.56274H1948.5V9.94012H1272.02V2.56274Z" fill="white"/>
</mask>
<g mask="url(#mask5_1142_35)">
<path d="M1267.82 5.43596C1271.69 7.10558 1275.3 7.99863 1279.87 7.88215C1289.93 7.57152 1299.99 7.41621 1310.1 7.33855C1342.54 7.02792 1374.97 6.79496 1407.36 6.60081C1431.13 6.4455 1454.91 6.32902 1478.69 6.1737C1500.74 6.05722 1522.79 5.86308 1544.85 5.86308C1563.41 5.86308 1581.97 5.97956 1600.52 6.25136C1616.66 6.48433 1632.8 7.02792 1648.94 7.37738C1657.7 7.57152 1666.47 7.64917 1675.24 7.84331C1715.1 8.65871 1755.01 8.07629 1794.87 8.2316C1816.34 8.30926 1837.85 8.46456 1859.32 8.73636C1878.25 8.96934 1897.13 9.39644 1916.07 9.70707C1923.6 9.82356 1931.13 9.90122 1938.71 9.94004C1940.92 9.94004 1943.12 9.82356 1945.33 9.66824C1947.37 9.4741 1948.45 8.77519 1948.18 7.92097C1947.8 6.87261 1946.41 6.75613 1944.85 6.71729C1935.06 6.29018 1925.27 5.82425 1915.48 5.43596C1912.03 5.28065 1908.59 5.16416 1905.15 5.08651C1891.16 4.81471 1877.18 4.50409 1863.19 4.34877C1851.09 4.23229 1838.98 4.34877 1826.88 4.34877C1821.39 4.34877 1815.85 4.3876 1810.31 4.50409C1799.98 4.69823 1789.71 4.9312 1779.38 5.16416C1778.74 5.203 1778.04 5.24183 1777.39 5.24183C1760.66 5.3583 1743.93 5.6301 1727.26 5.59128C1713.49 5.59128 1699.72 5.28065 1686 5.04768C1674.38 4.81471 1662.82 4.54291 1651.2 4.23229C1634.79 3.80517 1618.33 3.33924 1601.87 2.91213C1595.09 2.75682 1588.26 2.64033 1581.43 2.67916C1560.4 2.67916 1539.31 2.67916 1518.22 2.87329C1502.52 3.02862 1486.81 3.57221 1471.1 3.76635C1456.25 3.92166 1441.35 3.88283 1426.51 3.92166C1420.64 3.9605 1414.83 3.99932 1409.02 3.99932C1400.26 3.99932 1391.54 3.92166 1382.83 3.92166C1353.83 3.9605 1324.84 3.99932 1295.85 4.1158C1287.83 4.1158 1279.76 4.46526 1271.75 4.69823C1270.56 4.73705 1269.38 5.12534 1267.82 5.43596Z" fill="black"/>
</g>
</g>
</g>
<mask id="mask6_1142_35" style="mask-type:luminance" maskUnits="userSpaceOnUse" x="0" y="2" width="681" height="8">
<path d="M0 2.56274H680.521V9.94012H0V2.56274Z" fill="white"/>
</mask>
<g mask="url(#mask6_1142_35)">
<path d="M680.683 5.43596C676.81 7.10558 673.206 7.99863 668.633 7.88215C658.574 7.57152 648.515 7.41621 638.402 7.33855C605.966 7.02792 573.529 6.79496 541.147 6.60081C517.371 6.4455 493.595 6.32902 469.819 6.1737C447.764 6.05722 425.709 5.86308 403.655 5.86308C385.096 5.86308 366.538 5.97956 347.98 6.25136C331.842 6.48433 315.705 7.02792 299.567 7.37738C290.799 7.57152 282.031 7.64917 273.263 7.84331C233.403 8.65871 193.49 8.07629 153.63 8.2316C132.167 8.30926 110.65 8.46456 89.1872 8.73636C70.2524 8.96934 51.3715 9.39644 32.4367 9.70707C24.9059 9.82356 17.375 9.90122 9.79033 9.94004C7.58486 9.94004 5.37939 9.82356 3.17393 9.66824C1.12983 9.4741 0.0539957 8.77519 0.322955 7.92097C0.699498 6.87261 2.09809 6.75613 3.65805 6.71729C13.4482 6.29018 23.2383 5.82425 33.0284 5.43596C36.4711 5.28065 39.9138 5.16416 43.3565 5.08651C57.3423 4.81471 71.3283 4.50409 85.3141 4.34877C97.4173 4.23229 109.52 4.34877 121.624 4.34877C127.164 4.34877 132.651 4.3876 138.192 4.50409C148.52 4.69823 158.794 4.9312 169.122 5.16416C169.821 5.203 170.467 5.24183 171.112 5.24183C187.841 5.3583 204.571 5.6301 221.246 5.59128C235.017 5.59128 248.788 5.28065 262.505 5.04768C274.124 4.81471 285.689 4.54291 297.308 4.23229C313.715 3.80517 330.175 3.33924 346.635 2.91213C353.413 2.75682 360.244 2.64033 367.076 2.67916C388.109 2.67916 409.195 2.67916 430.282 2.87329C445.989 3.02862 461.696 3.57221 477.403 3.76635C492.25 3.92166 507.15 3.88283 521.997 3.92166C527.86 3.9605 533.669 3.99932 539.533 3.99932C548.247 3.99932 556.961 3.92166 565.676 3.92166C594.67 3.9605 623.663 3.99932 652.657 4.1158C660.672 4.1158 668.741 4.46526 676.756 4.69823C677.939 4.73705 679.123 5.12534 680.683 5.43596Z" fill="black"/>
</g>
</g>
</g>
</svg>
