<svg xmlns="http://www.w3.org/2000/svg" xmlns:xlink="http://www.w3.org/1999/xlink" width="189" zoomAndPan="magnify" viewBox="0 0 141.75 141.750002" height="189" preserveAspectRatio="xMidYMid meet" version="1.0"><defs><clipPath id="51d244633f"><path d="M 1 0.214844 L 134.246094 0.214844 L 134.246094 64.609375 L 1 64.609375 Z M 1 0.214844 " clip-rule="nonzero"/></clipPath><clipPath id="2f6300b940"><path d="M 12 9 L 15 9 L 15 12 L 12 12 Z M 12 9 " clip-rule="nonzero"/></clipPath><clipPath id="ef7e11aad1"><path d="M 13.613281 8.988281 L 14.25 9.359375 L 13.019531 11.484375 L 12.382812 11.117188 Z M 13.613281 8.988281 " clip-rule="nonzero"/></clipPath><clipPath id="f8b9bdaf63"><path d="M 14.191406 9.414062 C 11.339844 13.640625 13.125 9.285156 13.703125 9.128906 C 13.894531 9.078125 14.191406 9.414062 14.191406 9.414062 " clip-rule="nonzero"/></clipPath><clipPath id="5626a5a105"><path d="M 0.332031 0 L 2.25 0 L 2.25 2.632812 L 0.332031 2.632812 Z M 0.332031 0 " clip-rule="nonzero"/></clipPath><clipPath id="c481e220dd"><path d="M 1.613281 -0.0117188 L 2.25 0.359375 L 1.019531 2.484375 L 0.382812 2.117188 Z M 1.613281 -0.0117188 " clip-rule="nonzero"/></clipPath><clipPath id="3d4891081e"><path d="M 2.191406 0.414062 C -0.660156 4.640625 1.125 0.285156 1.703125 0.128906 C 1.894531 0.078125 2.191406 0.414062 2.191406 0.414062 " clip-rule="nonzero"/></clipPath><clipPath id="5e0b1dc301"><rect x="0" width="3" y="0" height="3"/></clipPath><clipPath id="79a5b74048"><rect x="0" width="135" y="0" height="65"/></clipPath></defs><g transform="matrix(1, 0, 0, 1, 3, 37)"><g clip-path="url(#79a5b74048)"><g clip-path="url(#51d244633f)"><path fill="#000000" d="M 30.132812 0.679688 C 12.957031 2.140625 3.25 16.878906 1.003906 44.890625 C 0.964844 45.375 1.324219 45.800781 1.804688 45.839844 C 1.851562 45.84375 1.902344 45.84375 1.949219 45.839844 C 2.367188 45.804688 2.710938 45.46875 2.742188 45.03125 C 4.910156 18.011719 14.09375 3.808594 30.292969 2.429688 C 30.460938 2.417969 30.632812 2.402344 30.808594 2.390625 L 30.796875 2.390625 C 35.777344 2.199219 41.820312 3.730469 48.929688 6.984375 C 56.976562 10.746094 70.300781 18.203125 88.90625 29.351562 L 88.949219 29.375 C 93.277344 31.640625 97.273438 33.453125 100.9375 34.8125 C 103.753906 35.90625 107.386719 36.890625 111.832031 37.769531 L 111.839844 37.773438 C 117.085938 38.75 123.296875 39.480469 130.476562 39.960938 L 130.46875 39.960938 C 131.421875 40.082031 132.0625 40.289062 132.390625 40.582031 L 132.386719 40.582031 C 132.355469 40.652344 132.285156 40.753906 132.175781 40.878906 C 131.289062 41.90625 128.816406 43.328125 124.753906 45.148438 C 120.699219 46.8125 115.710938 47.898438 109.785156 48.402344 C 109.523438 48.425781 109.257812 48.445312 108.996094 48.464844 L 108.992188 48.464844 C 97.761719 49.347656 87.375 47.925781 77.84375 44.203125 L 77.828125 44.207031 C 77.71875 44.160156 77.605469 44.113281 77.496094 44.066406 C 77.492188 44.066406 77.488281 44.066406 77.484375 44.0625 C 77.355469 44.011719 77.21875 43.992188 77.089844 44.003906 C 76.773438 44.03125 76.480469 44.234375 76.351562 44.550781 C 76.175781 45 76.386719 45.511719 76.832031 45.695312 C 84.554688 48.894531 91.0625 52.566406 96.363281 56.710938 L 96.355469 56.710938 C 98.246094 58.597656 98.894531 59.839844 98.304688 60.445312 C 97.9375 60.816406 97.183594 61.085938 96.039062 61.246094 L 96.023438 61.246094 C 95.988281 61.25 95.953125 61.253906 95.921875 61.257812 C 90.167969 61.746094 78.796875 55.648438 61.808594 42.96875 L 61.792969 42.96875 C 61.769531 42.953125 61.75 42.933594 61.730469 42.914062 L 61.734375 42.914062 C 61.714844 42.898438 61.695312 42.882812 61.675781 42.871094 C 61.496094 42.738281 61.285156 42.683594 61.082031 42.699219 C 60.851562 42.71875 60.628906 42.828125 60.472656 43.023438 C 60.179688 43.390625 60.226562 43.925781 60.578125 44.238281 C 66.59375 49.550781 70.90625 54.742188 73.519531 59.808594 L 73.507812 59.808594 C 74.015625 61.398438 73.949219 62.300781 73.308594 62.515625 C 73.175781 62.558594 73.027344 62.585938 72.859375 62.601562 C 72.097656 62.664062 70.953125 62.421875 69.429688 61.867188 L 69.421875 61.863281 C 67.792969 61.289062 65.539062 59.875 62.664062 57.621094 L 62.65625 57.621094 C 53.117188 48.695312 46.03125 42.710938 41.402344 39.664062 C 41.234375 39.550781 41.039062 39.507812 40.851562 39.523438 C 40.628906 39.542969 40.414062 39.644531 40.261719 39.824219 C 39.976562 40.160156 39.980469 40.65625 40.273438 40.984375 C 47.035156 48.597656 49.839844 52.917969 48.691406 53.953125 C 48.65625 53.984375 48.613281 54.011719 48.5625 54.039062 L 48.542969 54.046875 L 48.527344 54.050781 C 48.511719 54.050781 48.496094 54.054688 48.480469 54.054688 C 48.078125 54.089844 47.179688 53.875 45.785156 53.410156 L 45.773438 53.414062 C 38.519531 50.222656 34.101562 48.449219 32.519531 48.085938 L 32.511719 48.085938 C 29.496094 47.171875 26.601562 46.621094 23.828125 46.429688 C 22.707031 46.34375 21.597656 46.347656 20.496094 46.441406 C 16.234375 46.804688 12.09375 48.503906 8.082031 51.542969 C 7.695312 51.835938 7.617188 52.386719 7.910156 52.773438 C 8.097656 53.027344 8.390625 53.148438 8.679688 53.121094 C 8.839844 53.109375 8.996094 53.050781 9.132812 52.949219 C 12.875 50.113281 16.71875 48.53125 20.65625 48.195312 C 21.664062 48.109375 22.675781 48.105469 23.695312 48.183594 L 23.699219 48.183594 C 26.347656 48.367188 29.117188 48.894531 32.011719 49.769531 L 32.082031 49.789062 C 33.472656 50.082031 37.804688 51.828125 45.074219 55.023438 L 45.148438 55.050781 C 46.808594 55.605469 47.996094 55.855469 48.714844 55.792969 C 48.804688 55.785156 48.890625 55.773438 48.964844 55.753906 C 49.097656 55.722656 49.21875 55.679688 49.328125 55.621094 L 49.324219 55.621094 C 49.523438 55.523438 49.699219 55.40625 49.855469 55.265625 C 51.371094 53.898438 50.1875 50.648438 46.300781 45.511719 L 46.316406 45.507812 C 50.359375 48.777344 55.410156 53.242188 61.46875 58.910156 L 61.527344 58.960938 C 64.582031 61.359375 67.023438 62.878906 68.84375 63.523438 C 70.59375 64.160156 71.996094 64.429688 73.054688 64.339844 C 73.351562 64.316406 73.617188 64.261719 73.859375 64.183594 C 75.621094 63.59375 76.042969 61.90625 75.121094 59.125 L 75.070312 59 C 73.621094 56.191406 71.679688 53.355469 69.246094 50.492188 L 69.261719 50.492188 C 82.015625 59.273438 90.953125 63.445312 96.082031 63.007812 C 96.132812 63.003906 96.1875 63 96.238281 62.992188 L 96.269531 62.988281 C 97.8125 62.773438 98.90625 62.335938 99.546875 61.679688 C 100.964844 60.230469 100.285156 58.132812 97.511719 55.390625 L 97.433594 55.320312 C 94.558594 53.070312 91.335938 50.960938 87.773438 48.984375 L 87.785156 48.984375 C 94.539062 50.394531 101.652344 50.804688 109.128906 50.21875 L 109.125 50.21875 C 109.394531 50.199219 109.664062 50.175781 109.929688 50.152344 C 116.046875 49.632812 121.21875 48.503906 125.441406 46.765625 L 125.464844 46.757812 C 129.761719 44.832031 132.4375 43.253906 133.496094 42.03125 C 133.851562 41.617188 134.0625 41.210938 134.128906 40.808594 C 134.199219 40.367188 134.109375 39.964844 133.847656 39.597656 C 133.765625 39.480469 133.664062 39.367188 133.546875 39.265625 C 132.945312 38.726562 131.972656 38.375 130.636719 38.210938 L 130.589844 38.207031 C 123.484375 37.730469 117.34375 37.007812 112.167969 36.042969 C 107.816406 35.183594 104.277344 34.226562 101.554688 33.167969 L 101.539062 33.160156 C 97.960938 31.832031 94.046875 30.058594 89.804688 27.839844 L 89.800781 27.839844 C 71.140625 16.65625 57.757812 9.171875 49.660156 5.382812 L 49.652344 5.382812 C 42.28125 2.007812 35.96875 0.425781 30.714844 0.636719 L 30.691406 0.636719 C 30.503906 0.648438 30.316406 0.664062 30.132812 0.679688 Z M 30.132812 0.679688 " fill-opacity="1" fill-rule="nonzero"/></g><g clip-path="url(#2f6300b940)"><g clip-path="url(#ef7e11aad1)"><g clip-path="url(#f8b9bdaf63)"><g transform="matrix(1, 0, 0, 1, 12, 9)"><g clip-path="url(#5e0b1dc301)"><g clip-path="url(#5626a5a105)"><g clip-path="url(#c481e220dd)"><g clip-path="url(#3d4891081e)"><path fill="#000000" d="M 0.671875 -3.734375 L 6.117188 -0.585938 L 0.703125 8.773438 L -4.742188 5.625 Z M 0.671875 -3.734375 " fill-opacity="1" fill-rule="nonzero"/></g></g></g></g></g></g></g></g></g></g></svg>